<?xml version="1.0" encoding="iso-8859-1"?>
<!-- Generator: Adobe Illustrator 19.0.0, SVG Export Plug-In . SVG Version: 6.00 Build 0)  -->
<svg version="1.1" id="Layer_1" xmlns="http://www.w3.org/2000/svg" xmlns:xlink="http://www.w3.org/1999/xlink" x="0px" y="0px"
	 viewBox="0 0 511.998 511.998" style="enable-background:new 0 0 511.998 511.998;" xml:space="preserve">
<circle style="fill:#7DD2F0;" cx="256.002" cy="256.001" r="247.612"/>
<path style="opacity:0.1;enable-background:new    ;" d="M64.319,255.998c0-127.294,96.063-232.134,219.645-246.028
	c-9.181-1.032-18.508-1.582-27.965-1.582c-136.75,0-247.61,110.859-247.61,247.61s110.858,247.61,247.61,247.61
	c9.457,0,18.783-0.549,27.965-1.582C160.382,488.134,64.319,383.293,64.319,255.998z"/>
<polygon style="fill:#FFFFFF;" points="404.963,211.407 300.592,211.407 300.592,107.035 211.408,107.035 211.408,211.407
	107.037,211.407 107.037,300.591 211.408,300.591 211.408,404.963 300.592,404.963 300.592,300.591 404.963,300.591 "/>
<path d="M255.999,511.998c-68.381,0-132.668-26.629-181.019-74.979C26.629,388.666,0,324.378,0,255.998
	c0-36.75,7.624-72.228,22.662-105.45c14.525-32.09,35.169-60.412,61.359-84.178c3.432-3.114,8.738-2.857,11.85,0.575
	c3.114,3.431,2.857,8.737-0.575,11.85c-49.898,45.282-78.518,109.868-78.518,177.202c0,63.899,24.883,123.972,70.067,169.155
	c45.183,45.182,105.256,70.065,169.155,70.065c54.064,0,105.073-17.594,147.511-50.884c3.647-2.86,8.921-2.22,11.779,1.423
	c2.86,3.645,2.221,8.92-1.423,11.779C368.445,493.165,313.855,511.998,255.999,511.998z"/>
<path d="M116.4,59.876c-2.677,0-5.306-1.279-6.931-3.653c-2.604-3.807-1.648-8.997,2.133-11.626
	c3.719-2.64,8.887-1.822,11.607,1.867c2.748,3.731,1.952,8.982-1.777,11.731c-0.078,0.058-0.22,0.159-0.302,0.213
	C119.681,59.401,118.032,59.876,116.4,59.876z"/>
<path d="M433.487,437.015c-2.109,0-4.218-0.79-5.849-2.376c-3.321-3.232-3.395-8.543-0.163-11.863
	c43.687-44.908,67.745-104.138,67.745-166.777c0-63.898-24.883-123.971-70.067-169.154S319.897,16.779,255.998,16.779
	c-48.378,0-94.988,14.377-134.79,41.575c-3.827,2.612-9.045,1.631-11.66-2.194c-2.614-3.826-1.632-9.046,2.194-11.66
	C154.345,15.389,204.228,0,255.998,0c68.38,0,132.668,26.629,181.019,74.981s74.981,112.638,74.981,181.018
	c0,67.034-25.748,130.418-72.498,178.476C437.857,436.166,435.673,437.015,433.487,437.015z"/>
<path d="M300.592,413.351h-89.184c-4.634,0-8.389-3.755-8.389-8.389v-95.982h-95.982c-4.634,0-8.389-3.755-8.389-8.389v-89.184
	c0-4.634,3.755-8.389,8.389-8.389h95.982v-95.981c0-4.634,3.755-8.389,8.389-8.389h89.184c4.634,0,8.389,3.755,8.389,8.389v95.982
	h95.982c4.634,0,8.389,3.755,8.389,8.389v89.184c0,4.634-3.755,8.389-8.389,8.389h-95.982v95.982
	C308.982,409.596,305.225,413.351,300.592,413.351z M219.797,396.572h72.406V300.59c0-4.634,3.755-8.389,8.389-8.389h95.982v-72.406
	h-95.982c-4.634,0-8.389-3.755-8.389-8.389v-95.982h-72.406v95.982c0,4.634-3.755,8.389-8.389,8.389h-95.982v72.406h95.982
	c4.634,0,8.389,3.755,8.389,8.389L219.797,396.572L219.797,396.572z"/>
<g>
</g>
<g>
</g>
<g>
</g>
<g>
</g>
<g>
</g>
<g>
</g>
<g>
</g>
<g>
</g>
<g>
</g>
<g>
</g>
<g>
</g>
<g>
</g>
<g>
</g>
<g>
</g>
<g>
</g>
</svg>
